HIERARCHY
ROOT Hips
{
	OFFSET 0.053599 88.859886 3.107447
	CHANNELS 6 Xposition Yposition Zposition Zrotation Yrotation Xrotation 
	JOINT Spine
	{
		OFFSET -0.000000 8.814246 -2.080107
		CHANNELS 3 Zrotation Yrotation Xrotation
		JOINT Spine1
		{
			OFFSET 0.000000 8.844141 0.000000
			CHANNELS 3 Zrotation Yrotation Xrotation
			JOINT Spine2
			{
				OFFSET -0.000000 11.682268 0.000000
				CHANNELS 3 Zrotation Yrotation Xrotation
				JOINT Spine3
				{
					OFFSET 0.000000 11.746700 0.000000
					CHANNELS 3 Zrotation Yrotation Xrotation
					JOINT Neck
					{
						OFFSET -0.000000 17.658264 -0.000000
						CHANNELS 3 Zrotation Yrotation Xrotation
						JOINT Neck1
						{
							OFFSET -0.000000 5.101515 -0.000000
							CHANNELS 3 Zrotation Yrotation Xrotation
							JOINT Head
							{
								OFFSET 0.000000 5.101515 0.000000
								CHANNELS 3 Zrotation Yrotation Xrotation
								JOINT HeadEnd
								{
									OFFSET 0.000000 11.655085 0.000000
									CHANNELS 3 Zrotation Yrotation Xrotation
									End Site
									{
										OFFSET 0.000000 0.000000 0.000000
									}
								}
							}
						}
					}
					JOINT RightShoulder
					{
						OFFSET -2.625389 11.175210 0.000000
						CHANNELS 3 Zrotation Yrotation Xrotation
						JOINT RightArm
						{
							OFFSET -0.000000 10.434715 -0.000000
							CHANNELS 3 Zrotation Yrotation Xrotation
							JOINT RightForeArm
							{
								OFFSET -0.000000 29.628420 0.000000
								CHANNELS 3 Zrotation Yrotation Xrotation
								JOINT RightHand
								{
									OFFSET -0.000000 22.857611 0.000000
									CHANNELS 3 Zrotation Yrotation Xrotation
									JOINT RightHandThumb1
									{
										OFFSET -2.867323 3.959563 2.944291
										CHANNELS 3 Zrotation Yrotation Xrotation
										JOINT RightHandThumb2
										{
											OFFSET 0.000000 3.350399 0.000000
											CHANNELS 3 Zrotation Yrotation Xrotation
											JOINT RightHandThumb3
											{
												OFFSET 0.000000 3.756509 -0.000000
												CHANNELS 3 Zrotation Yrotation Xrotation
												JOINT RightHandThumb4
												{
													OFFSET 0.000000 3.147345 0.000000
													CHANNELS 3 Zrotation Yrotation Xrotation
													End Site
													{
														OFFSET 0.000000 0.000000 0.000000
													}
												}
											}
										}
									}
									JOINT RightHandIndex1
									{
										OFFSET -0.086752 10.030893 2.345280
										CHANNELS 3 Zrotation Yrotation Xrotation
										JOINT RightHandIndex2
										{
											OFFSET -0.000000 4.061090 0.000000
											CHANNELS 3 Zrotation Yrotation Xrotation
											JOINT RightHandIndex3
											{
												OFFSET -0.000000 3.248873 0.000000
												CHANNELS 3 Zrotation Yrotation Xrotation
												JOINT RightHandIndex4
												{
													OFFSET 0.000000 2.639709 -0.000000
													CHANNELS 3 Zrotation Yrotation Xrotation
													End Site
													{
														OFFSET 0.000000 0.000000 0.000000
													}
												}
											}
										}
									}
									JOINT RightHandMiddle1
									{
										OFFSET 0.104102 9.502952 0.006768
										CHANNELS 3 Zrotation Yrotation Xrotation
										JOINT RightHandMiddle2
										{
											OFFSET 0.000000 4.568727 0.000000
											CHANNELS 3 Zrotation Yrotation Xrotation
											JOINT RightHandMiddle3
											{
												OFFSET 0.000000 3.654981 -0.000000
												CHANNELS 3 Zrotation Yrotation Xrotation
												JOINT RightHandMiddle4
												{
													OFFSET -0.000000 2.741236 -0.000000
													CHANNELS 3 Zrotation Yrotation Xrotation
													End Site
													{
														OFFSET 0.000000 0.000000 0.000000
													}
												}
											}
										}
									}
									JOINT RightHandRing1
									{
										OFFSET 0.086752 8.921708 -2.267442
										CHANNELS 3 Zrotation Yrotation Xrotation
										JOINT RightHandRing2
										{
											OFFSET -0.000000 4.061090 0.000000
											CHANNELS 3 Zrotation Yrotation Xrotation
											JOINT RightHandRing3
											{
												OFFSET 0.000000 3.654981 -0.000000
												CHANNELS 3 Zrotation Yrotation Xrotation
												JOINT RightHandRing4
												{
													OFFSET 0.000000 2.741236 -0.000000
													CHANNELS 3 Zrotation Yrotation Xrotation
													End Site
													{
														OFFSET 0.000000 0.000000 0.000000
													}
												}
											}
										}
									}
									JOINT RightHandPinky1
									{
										OFFSET -0.173504 7.976997 -4.467199
										CHANNELS 3 Zrotation Yrotation Xrotation
										JOINT RightHandPinky2
										{
											OFFSET 0.000000 3.350399 -0.000000
											CHANNELS 3 Zrotation Yrotation Xrotation
											JOINT RightHandPinky3
											{
												OFFSET -0.000000 2.842763 0.000000
												CHANNELS 3 Zrotation Yrotation Xrotation
												JOINT RightHandPinky4
												{
													OFFSET -0.000000 2.639709 0.000000
													CHANNELS 3 Zrotation Yrotation Xrotation
													End Site
													{
														OFFSET 0.000000 0.000000 0.000000
													}
												}
											}
										}
									}
									JOINT RightForeArmEnd
									{
										OFFSET 0.000000 0.000000 0.000000
										CHANNELS 3 Zrotation Yrotation Xrotation
										End Site
										{
											OFFSET 0.000000 0.000000 0.000000
										}
									}
								}
								JOINT RightArmEnd
								{
									OFFSET 0.000000 0.000000 0.000000
									CHANNELS 3 Zrotation Yrotation Xrotation
									End Site
									{
										OFFSET 0.000000 0.000000 0.000000
									}
								}
							}
						}
					}
					JOINT LeftShoulder
					{
						OFFSET 2.625389 11.175210 0.000000
						CHANNELS 3 Zrotation Yrotation Xrotation
						JOINT LeftArm
						{
							OFFSET 0.000000 10.813635 -0.000000
							CHANNELS 3 Zrotation Yrotation Xrotation
							JOINT LeftForeArm
							{
								OFFSET 0.000000 28.724781 0.000000
								CHANNELS 3 Zrotation Yrotation Xrotation
								JOINT LeftHand
								{
									OFFSET 0.644384 25.716167 -0.328871
									CHANNELS 3 Zrotation Yrotation Xrotation
									JOINT LeftHandThumb1
									{
										OFFSET 2.867323 3.959563 2.944291
										CHANNELS 3 Zrotation Yrotation Xrotation
										JOINT LeftHandThumb2
										{
											OFFSET 0.000000 3.350399 0.000000
											CHANNELS 3 Zrotation Yrotation Xrotation
											JOINT LeftHandThumb3
											{
												OFFSET -0.000000 3.756509 0.000000
												CHANNELS 3 Zrotation Yrotation Xrotation
												JOINT LeftHandThumb4
												{
													OFFSET -0.000000 3.100000 0.000000
													CHANNELS 3 Zrotation Yrotation Xrotation
													End Site
													{
														OFFSET 0.000000 0.000000 0.000000
													}
												}
											}
										}
									}
									JOINT LeftHandIndex1
									{
										OFFSET 0.086752 10.030893 2.345280
										CHANNELS 3 Zrotation Yrotation Xrotation
										JOINT LeftHandIndex2
										{
											OFFSET -0.000000 4.061090 -0.000000
											CHANNELS 3 Zrotation Yrotation Xrotation
											JOINT LeftHandIndex3
											{
												OFFSET 0.000000 3.248873 -0.000000
												CHANNELS 3 Zrotation Yrotation Xrotation
												JOINT LeftHandIndex4
												{
													OFFSET 0.000000 2.639709 -0.000000
													CHANNELS 3 Zrotation Yrotation Xrotation
													End Site
													{
														OFFSET 0.000000 0.000000 0.000000
													}
												}
											}
										}
									}
									JOINT LeftHandMiddle1
									{
										OFFSET -0.104102 9.502952 0.006768
										CHANNELS 3 Zrotation Yrotation Xrotation
										JOINT LeftHandMiddle2
										{
											OFFSET -0.000000 4.568727 -0.000000
											CHANNELS 3 Zrotation Yrotation Xrotation
											JOINT LeftHandMiddle3
											{
												OFFSET 0.000000 3.654981 0.000000
												CHANNELS 3 Zrotation Yrotation Xrotation
												JOINT LeftHandMiddle4
												{
													OFFSET 0.000000 2.741236 -0.000000
													CHANNELS 3 Zrotation Yrotation Xrotation
													End Site
													{
														OFFSET 0.000000 0.000000 0.000000
													}
												}
											}
										}
									}
									JOINT LeftHandRing1
									{
										OFFSET -0.086752 8.921708 -2.267442
										CHANNELS 3 Zrotation Yrotation Xrotation
										JOINT LeftHandRing2
										{
											OFFSET 0.000000 4.061090 0.000000
											CHANNELS 3 Zrotation Yrotation Xrotation
											JOINT LeftHandRing3
											{
												OFFSET 0.000000 3.654981 0.000000
												CHANNELS 3 Zrotation Yrotation Xrotation
												JOINT LeftHandRing4
												{
													OFFSET 0.000000 2.741236 0.000000
													CHANNELS 3 Zrotation Yrotation Xrotation
													End Site
													{
														OFFSET 0.000000 0.000000 0.000000
													}
												}
											}
										}
									}
									JOINT LeftHandPinky1
									{
										OFFSET 0.173504 7.976997 -4.467199
										CHANNELS 3 Zrotation Yrotation Xrotation
										JOINT LeftHandPinky2
										{
											OFFSET -0.000000 3.350399 -0.000000
											CHANNELS 3 Zrotation Yrotation Xrotation
											JOINT LeftHandPinky3
											{
												OFFSET 0.000000 2.842763 0.000000
												CHANNELS 3 Zrotation Yrotation Xrotation
												JOINT LeftHandPinky4
												{
													OFFSET -0.000000 2.639709 -0.000000
													CHANNELS 3 Zrotation Yrotation Xrotation
													End Site
													{
														OFFSET 0.000000 0.000000 0.000000
													}
												}
											}
										}
									}
									JOINT LeftForeArmEnd
									{
										OFFSET 0.000000 0.000000 0.000000
										CHANNELS 3 Zrotation Yrotation Xrotation
										End Site
										{
											OFFSET 0.000000 0.000000 0.000000
										}
									}
								}
								JOINT LeftArmEnd
								{
									OFFSET 0.000000 0.000000 0.000000
									CHANNELS 3 Zrotation Yrotation Xrotation
									End Site
									{
										OFFSET 0.000000 0.000000 0.000000
									}
								}
							}
						}
					}
				}
			}
		}
	}
	JOINT RightUpLeg
	{
		OFFSET -11.289943 0.000000 0.000000
		CHANNELS 3 Zrotation Yrotation Xrotation
		JOINT RightLeg
		{
			OFFSET 0.000000 -38.200325 0.000000
			CHANNELS 3 Zrotation Yrotation Xrotation
			JOINT RightFoot
			{
				OFFSET -0.000000 -39.900856 -0.000000
				CHANNELS 3 Zrotation Yrotation Xrotation
				JOINT RightToeBase
				{
					OFFSET 0.000000 0.000000 15.261641
					CHANNELS 3 Zrotation Yrotation Xrotation
					JOINT RightToeBaseEnd
					{
						OFFSET 0.000000 0.000000 7.370709
						CHANNELS 3 Zrotation Yrotation Xrotation
						End Site
						{
							OFFSET 0.000000 0.000000 0.000000
						}
					}
				}
				JOINT RightLegEnd
				{
					OFFSET 0.000000 0.000000 0.000000
					CHANNELS 3 Zrotation Yrotation Xrotation
					End Site
					{
						OFFSET 0.000000 0.000000 0.000000
					}
				}
			}
			JOINT RightUpLegEnd
			{
				OFFSET 0.000000 0.000000 0.000000
				CHANNELS 3 Zrotation Yrotation Xrotation
				End Site
				{
					OFFSET 0.000000 0.000000 0.000000
				}
			}
		}
	}
	JOINT LeftUpLeg
	{
		OFFSET 11.315661 -0.000000 0.000000
		CHANNELS 3 Zrotation Yrotation Xrotation
		JOINT LeftLeg
		{
			OFFSET -0.000000 -38.200325 -0.000000
			CHANNELS 3 Zrotation Yrotation Xrotation
			JOINT LeftFoot
			{
				OFFSET 0.000000 -39.900856 -0.000000
				CHANNELS 3 Zrotation Yrotation Xrotation
				JOINT LeftToeBase
				{
					OFFSET -0.000000 -0.000000 15.261641
					CHANNELS 3 Zrotation Yrotation Xrotation
					JOINT LeftToeBaseEnd
					{
						OFFSET 0.000000 -0.000000 7.539996
						CHANNELS 3 Zrotation Yrotation Xrotation
						End Site
						{
							OFFSET 0.000000 0.000000 0.000000
						}
					}
				}
				JOINT LeftLegEnd
				{
					OFFSET 0.000000 0.000000 0.000000
					CHANNELS 3 Zrotation Yrotation Xrotation
					End Site
					{
						OFFSET 0.000000 0.000000 0.000000
					}
				}
			}
			JOINT LeftUpLegEnd
			{
				OFFSET 0.000000 0.000000 0.000000
				CHANNELS 3 Zrotation Yrotation Xrotation
				End Site
				{
					OFFSET 0.000000 0.000000 0.000000
				}
			}
		}
	}
}
MOTION
Frames: 4
Frame Time: 0.016667
0.487514 88.758759 2.920077 0.253329 -0.967691 -9.991742 0.730505 0.120283 7.131764 -0.762762 0.266632 2.330874 0.329553 -0.786064 4.385130 -1.090752 0.139109 4.329731 1.819361 0.494974 4.688939 0.316294 1.103963 -3.224064 -0.441842 -0.750498 -20.313417 0.000000 0.000000 0.000000 92.475342 -0.048691 9.676851 68.003593 -25.808527 2.154694 0.196718 17.835106 29.908918 -3.723606 12.942698 -7.224731 19.147083 30.336393 62.640408 -7.815448 -10.943374 -18.650908 -5.807721 -7.191371 -12.911755 0.000000 0.000000 0.000000 7.668847 -10.207512 3.958076 6.993395 0.551669 0.677627 6.725975 0.110326 0.723880 0.000000 0.000000 0.000000 7.088368 -4.679489 1.995560 5.782833 0.520034 0.228924 6.090519 0.022325 0.218811 0.000000 0.000000 0.000000 7.960380 3.172814 0.709208 6.084991 -0.999539 -0.442920 5.917715 -0.016807 -0.312546 0.000000 0.000000 0.000000 7.356013 11.643763 -1.390491 5.785342 -1.975839 -1.388250 5.653970 -0.010034 -1.138991 0.000000 0.000000 0.000000 0.000000 0.000000 0.000000 0.000000 0.000000 0.000000 -89.433189 0.046830 5.259998 -71.261993 15.814167 -6.202460 -0.331101 -13.288939 51.913273 12.708330 -4.776947 -13.150829 -17.062746 -31.055605 64.878067 5.392655 6.672316 -11.837524 3.799160 4.472621 -8.414686 0.000000 0.000000 0.000000 5.090856 -9.971694 11.895385 -1.982350 0.566717 -0.441393 -1.997136 0.086399 -0.478138 0.000000 0.000000 0.000000 4.381855 -4.480589 7.437903 -2.022933 0.513242 -0.215100 -2.313618 0.015455 -0.179068 0.000000 0.000000 0.000000 1.155767 4.293311 2.204316 -4.145644 -1.015520 0.481740 -4.093729 -0.020719 0.392874 0.000000 0.000000 0.000000 -2.569646 14.053705 -3.551463 -6.259884 -1.932644 1.959589 -5.951171 0.101516 1.745575 0.000000 0.000000 0.000000 0.000000 0.000000 0.000000 0.000000 0.000000 0.000000 -1.208921 -8.790428 14.230367 -0.091089 -0.731173 5.476902 -2.766596 -7.344172 17.197132 -0.871110 0.809348 -18.904415 0.000000 0.000000 0.000000 0.000000 0.000000 0.000000 0.000000 0.000000 0.000000 -2.169808 -5.724783 8.888625 0.050566 0.266352 10.049794 4.319512 -0.512707 16.854527 0.247247 -0.405970 -20.652222 0.000000 0.000000 0.000000 0.000000 0.000000 0.000000 0.000000 0.000000 0.000000 
0.483125 88.741020 2.923899 0.286523 -0.995569 -10.068934 0.695277 0.126492 7.180520 -0.750341 0.270286 2.345275 0.291473 -0.783417 4.473308 -1.086796 0.123414 4.341793 1.867944 0.456600 4.878075 0.337338 1.101582 -3.142801 -0.433779 -0.756409 -20.369698 0.000000 0.000000 0.000000 92.550629 -0.053143 9.676720 68.003090 -26.003117 2.218992 0.205536 17.821096 29.608278 -3.735077 12.664087 -7.481367 19.048088 30.369984 62.738255 -7.705938 -10.752468 -18.353722 -5.723613 -7.067463 -12.706350 0.000000 0.000000 0.000000 6.826794 -10.074384 4.100114 6.537333 0.562618 0.636134 6.255713 0.121710 0.685816 0.000000 0.000000 0.000000 6.307350 -4.541891 2.053172 5.327442 0.524284 0.212675 5.619413 0.025947 0.205413 0.000000 0.000000 0.000000 7.261799 3.298237 0.674363 5.614820 -1.005062 -0.421977 5.442884 -0.021577 -0.296076 0.000000 0.000000 0.000000 6.743631 11.743380 -1.501188 5.376815 -1.994566 -1.320477 5.244365 -0.027062 -1.080107 0.000000 0.000000 0.000000 0.000000 0.000000 0.000000 0.000000 0.000000 0.000000 -89.550652 0.048030 5.273293 -71.192101 15.868453 -6.001331 -0.315698 -13.183881 51.874279 13.260366 -4.084774 -13.210279 -16.851892 -31.135174 65.111145 5.127529 6.254593 -11.153279 3.593959 4.192885 -7.938516 0.000000 0.000000 0.000000 6.786037 -10.273588 12.353773 -1.726512 0.571641 -0.427078 -1.748353 0.091952 -0.464322 0.000000 0.000000 0.000000 6.046502 -4.778341 7.758112 -1.740819 0.515148 -0.207018 -2.047609 0.017448 -0.172942 0.000000 0.000000 0.000000 2.915545 3.998681 2.335622 -3.775640 -1.018349 0.466221 -3.714520 -0.023819 0.381941 0.000000 0.000000 0.000000 -0.867474 13.806856 -3.582195 -5.841306 -1.944488 1.898923 -5.536224 0.088669 1.696128 0.000000 0.000000 0.000000 0.000000 0.000000 0.000000 0.000000 0.000000 0.000000 -1.238615 -8.774236 14.304897 -0.091908 -0.733894 5.486472 -2.787183 -7.257274 17.099663 -0.866222 0.813484 -18.867765 0.000000 0.000000 0.000000 0.000000 0.000000 0.000000 0.000000 0.000000 0.000000 -2.171964 -5.683496 8.950558 0.050635 0.264606 10.067744 4.315033 -0.515585 16.828133 0.247937 -0.407908 -20.652430 0.000000 0.000000 0.000000 0.000000 0.000000 0.000000 0.000000 0.000000 0.000000 
0.479124 88.723167 2.930464 0.319716 -1.026391 -10.148829 0.659353 0.132409 7.231440 -0.738334 0.274421 2.359217 0.252102 -0.784899 4.570274 -1.081437 0.105003 4.348704 1.925597 0.425443 5.046018 0.359664 1.106681 -3.072819 -0.427421 -0.761327 -20.415756 0.000000 0.000000 0.000000 92.630539 -0.062460 9.679634 67.998108 -26.207155 2.306914 0.214579 17.784931 29.247091 -3.660575 12.314535 -7.776244 18.948090 30.404728 62.839710 -7.590224 -10.556670 -18.047522 -5.635688 -6.940548 -12.494537 0.000000 0.000000 0.000000 5.956405 -9.938241 4.224316 6.088907 0.569864 0.606810 5.792427 0.129630 0.658408 0.000000 0.000000 0.000000 5.489451 -4.398482 2.094983 4.874990 0.526975 0.201534 5.153337 0.028277 0.196170 0.000000 0.000000 0.000000 6.513955 3.432109 0.621624 5.139438 -1.008352 -0.407892 4.965094 -0.024720 -0.284888 0.000000 0.000000 0.000000 6.078368 11.851201 -1.631845 4.959424 -2.006831 -1.272429 4.824810 -0.038568 -1.037566 0.000000 0.000000 0.000000 0.000000 0.000000 0.000000 0.000000 0.000000 0.000000 -89.672035 0.047568 5.293108 -71.129463 15.872752 -5.799004 -0.302961 -13.082493 51.793159 13.702891 -3.505536 -13.329146 -16.668633 -31.206505 65.317627 4.889013 5.888998 -10.547856 3.411471 3.948643 -7.518502 0.000000 0.000000 0.000000 8.311419 -10.541659 12.707644 -1.531700 0.573899 -0.420852 -1.558609 0.095083 -0.457581 0.000000 0.000000 0.000000 7.549456 -5.045500 7.997754 -1.517978 0.516043 -0.202482 -1.840647 0.018520 -0.169538 0.000000 0.000000 0.000000 4.517060 3.729581 2.416156 -3.466349 -1.019651 0.454861 -3.396444 -0.025669 0.374142 0.000000 0.000000 0.000000 0.691727 13.576499 -3.635576 -5.479450 -1.951656 1.848649 -5.176836 0.079705 1.655206 0.000000 0.000000 0.000000 0.000000 0.000000 0.000000 0.000000 0.000000 0.000000 -1.270622 -8.759538 14.378111 -0.092828 -0.737395 5.497746 -2.805851 -7.167974 17.002714 -0.862114 0.818323 -18.827763 0.000000 0.000000 0.000000 0.000000 0.000000 0.000000 0.000000 0.000000 0.000000 -2.171731 -5.638615 9.016419 0.050797 0.262523 10.092643 4.307337 -0.513707 16.797775 0.248529 -0.409543 -20.652958 0.000000 0.000000 0.000000 0.000000 0.000000 0.000000 0.000000 0.000000 0.000000 
0.475828 88.705788 2.939409 0.352390 -1.059493 -10.229350 0.625677 0.137609 7.282152 -0.731215 0.279712 2.372980 0.215388 -0.791335 4.671979 -1.075868 0.084865 4.353218 1.990313 0.400721 5.184702 0.382688 1.118857 -3.015598 -0.422315 -0.765215 -20.449862 0.000000 0.000000 0.000000 92.707184 -0.075302 9.688357 68.000687 -26.395966 2.399792 0.222359 17.727848 28.872465 -3.527430 11.933068 -8.080762 18.848610 30.439611 62.942123 -7.471809 -10.359487 -17.739452 -5.546052 -6.812872 -12.280826 0.000000 0.000000 0.000000 5.088078 -9.801898 4.344907 5.661257 0.573862 0.587881 5.350624 0.134516 0.640305 0.000000 0.000000 0.000000 4.662192 -4.253364 2.133578 4.439190 0.528395 0.194685 4.706987 0.029553 0.190379 0.000000 0.000000 0.000000 5.738000 3.570621 0.559603 4.673204 -1.009802 -0.399459 4.499237 -0.026486 -0.277964 0.000000 0.000000 0.000000 5.373889 11.965164 -1.776875 4.544334 -2.013393 -1.240837 4.406988 -0.045246 -1.008913 0.000000 0.000000 0.000000 0.000000 0.000000 0.000000 0.000000 0.000000 0.000000 -89.788681 0.045026 5.320029 -71.083855 15.824642 -5.609256 -0.291163 -12.991659 51.701504 14.050051 -3.010069 -13.474677 -16.510857 -31.268612 65.496796 4.680347 5.573027 -10.023247 3.253068 3.738176 -7.153972 0.000000 0.000000 0.000000 9.639137 -10.769846 12.980103 -1.381212 0.574456 -0.418922 -1.410249 0.096796 -0.454509 0.000000 0.000000 0.000000 8.868178 -5.277309 8.173860 -1.339509 0.516365 -0.200018 -1.676921 0.019125 -0.167558 0.000000 0.000000 0.000000 5.936399 3.488731 2.456373 -3.208511 -1.020034 0.446333 -3.130574 -0.026794 0.368252 0.000000 0.000000 0.000000 2.086073 13.361753 -3.708601 -5.169123 -1.955478 1.806445 -4.868015 0.073507 1.620538 0.000000 0.000000 0.000000 0.000000 0.000000 0.000000 0.000000 0.000000 0.000000 -1.304283 -8.745606 14.447634 -0.093924 -0.741674 5.509233 -2.822065 -7.078196 16.909378 -0.859249 0.824004 -18.785995 0.000000 0.000000 0.000000 0.000000 0.000000 0.000000 0.000000 0.000000 0.000000 -2.169063 -5.589722 9.084299 0.050912 0.260088 10.122628 4.295915 -0.506614 16.764656 0.248743 -0.411135 -20.652311 0.000000 0.000000 0.000000 0.000000 0.000000 0.000000 0.000000 0.000000 0.000000 
